<svg width="17" height="20" viewBox="0 0 17 20" fill="none" xmlns="http://www.w3.org/2000/svg">
<path d="M7.10692 7.89999C7.10692 7.40294 6.70398 6.99999 6.20692 6.99999C5.70986 6.99999 5.30692 7.40294 5.30692 7.89999H7.10692ZM5.30692 15.9C5.30692 16.397 5.70986 16.8 6.20692 16.8C6.70398 16.8 7.10692 16.397 7.10692 15.9H5.30692ZM11.3525 7.89999C11.3525 7.40294 10.9496 6.99999 10.4525 6.99999C9.95548 6.99999 9.55253 7.40294 9.55253 7.89999H11.3525ZM9.55253 15.9C9.55253 16.397 9.95548 16.8 10.4525 16.8C10.9496 16.8 11.3525 16.397 11.3525 15.9H9.55253ZM3.12038 18.682L3.50987 17.8707L3.12038 18.682ZM2.19268 17.808L2.98432 17.3798H2.98432L2.19268 17.808ZM14.4668 17.808L13.6751 17.3798V17.3798L14.4668 17.808ZM13.5391 18.682L13.1496 17.8707H13.1496L13.5391 18.682ZM0.899902 3.99999C0.402846 3.99999 -9.76324e-05 4.40294 -9.76324e-05 4.89999C-9.76324e-05 5.39705 0.402846 5.79999 0.899902 5.79999V3.99999ZM15.7596 5.79999C16.2566 5.79999 16.6596 5.39705 16.6596 4.89999C16.6596 4.40294 16.2566 3.99999 15.7596 3.99999V5.79999ZM3.71481 4.89999C3.71481 5.39705 4.11776 5.79999 4.61481 5.79999C5.11187 5.79999 5.51481 5.39705 5.51481 4.89999H3.71481ZM11.1446 4.89999C11.1446 5.39705 11.5476 5.79999 12.0446 5.79999C12.5417 5.79999 12.9446 5.39705 12.9446 4.89999H11.1446ZM5.30692 7.89999V15.9H7.10692V7.89999H5.30692ZM9.55253 7.89999V15.9H11.3525V7.89999H9.55253ZM13.7981 4.89999V15.7H15.5981V4.89999H13.7981ZM11.3017 18H5.3578V19.8H11.3017V18ZM1.06131 4.89999V15.7H2.86131V4.89999H1.06131ZM5.3578 18C4.74936 18 4.34403 17.9994 4.03262 17.9754C3.73023 17.9521 3.59375 17.9109 3.50987 17.8707L2.73089 19.4934C3.1011 19.6711 3.48889 19.7389 3.89447 19.7701C4.29101 19.8006 4.77736 19.8 5.3578 19.8V18ZM1.06131 15.7C1.06131 16.2443 1.06052 16.71 1.09359 17.0913C1.12773 17.4849 1.20281 17.8696 1.40103 18.2361L2.98432 17.3798C2.95117 17.3185 2.91057 17.2093 2.88686 16.9358C2.86209 16.6502 2.86131 16.2758 2.86131 15.7H1.06131ZM3.50987 17.8707C3.27503 17.7579 3.09418 17.583 2.98432 17.3798L1.40103 18.2361C1.69822 18.7856 2.16686 19.2226 2.73089 19.4934L3.50987 17.8707ZM13.7981 15.7C13.7981 16.2758 13.7974 16.6502 13.7726 16.9358C13.7489 17.2093 13.7083 17.3185 13.6751 17.3798L15.2584 18.2361C15.4566 17.8696 15.5317 17.4849 15.5659 17.0913C15.5989 16.71 15.5981 16.2443 15.5981 15.7H13.7981ZM11.3017 19.8C11.8821 19.8 12.3684 19.8006 12.765 19.7701C13.1706 19.7389 13.5584 19.6711 13.9286 19.4934L13.1496 17.8707C13.0657 17.9109 12.9292 17.9521 12.6268 17.9754C12.3154 17.9994 11.9101 18 11.3017 18V19.8ZM13.6751 17.3798C13.5653 17.583 13.3844 17.7579 13.1496 17.8707L13.9286 19.4934C14.4926 19.2226 14.9612 18.7856 15.2584 18.2361L13.6751 17.3798ZM0.899902 5.79999H1.96131V3.99999H0.899902V5.79999ZM1.96131 5.79999H14.6981V3.99999H1.96131V5.79999ZM14.6981 5.79999H15.7596V3.99999H14.6981V5.79999ZM5.51481 4.09999C5.51481 2.95107 6.64439 1.79999 8.32973 1.79999V-6.07967e-06C5.91169 -6.07967e-06 3.71481 1.71429 3.71481 4.09999H5.51481ZM8.32973 1.79999C10.0151 1.79999 11.1446 2.95107 11.1446 4.09999H12.9446C12.9446 1.71429 10.7478 -6.07967e-06 8.32973 -6.07967e-06V1.79999ZM3.71481 4.09999V4.89999H5.51481V4.09999H3.71481ZM11.1446 4.09999V4.89999H12.9446V4.09999H11.1446Z" fill="#8A33FD"/>
</svg>
