<svg width="13" height="13" viewBox="0 0 13 13" fill="none" xmlns="http://www.w3.org/2000/svg">
<path d="M2.56158 3.56276V12.5907H0.150232V3.56276H2.56158ZM4.49885e-05 1.20982C4.49885e-05 0.859385 0.12242 0.570135 0.36717 0.342072C0.61192 0.11401 0.940108 -2.14297e-05 1.35173 -2.14297e-05C1.7578 -2.14297e-05 2.0832 0.11401 2.32795 0.342072C2.57826 0.570135 2.70342 0.859385 2.70342 1.20982C2.70342 1.56026 2.57826 1.84951 2.32795 2.07757C2.0832 2.30563 1.7578 2.41967 1.35173 2.41967C0.940108 2.41967 0.61192 2.30563 0.36717 2.07757C0.12242 1.84951 4.49885e-05 1.56026 4.49885e-05 1.20982ZM7.24209 5.49017V12.5907H4.83909V3.56276H7.0919L7.24209 5.49017ZM6.89165 7.75967H6.24084C6.24084 7.09217 6.32706 6.49142 6.49949 5.95742C6.67193 5.41785 6.9139 4.95895 7.2254 4.5807C7.5369 4.19689 7.90681 3.90485 8.33512 3.7046C8.76899 3.49879 9.25293 3.39589 9.78693 3.39589C10.2097 3.39589 10.5963 3.45707 10.9467 3.57945C11.2971 3.70182 11.5975 3.89651 11.8478 4.16351C12.1037 4.43051 12.2984 4.78373 12.4319 5.22317C12.571 5.6626 12.6405 6.19939 12.6405 6.83351V12.5907H10.2208V6.82517C10.2208 6.42467 10.1652 6.11317 10.0539 5.89067C9.94268 5.66817 9.77859 5.51242 9.56165 5.42342C9.35027 5.32885 9.08884 5.28157 8.77734 5.28157C8.45471 5.28157 8.17381 5.34554 7.93462 5.47348C7.70099 5.60142 7.50631 5.77942 7.35056 6.00748C7.20037 6.22998 7.08634 6.49142 7.00846 6.79179C6.93059 7.09217 6.89165 7.41479 6.89165 7.75967Z" fill="#2A2F2F"/>
</svg>
