<svg width="92" height="45" viewBox="0 0 92 45" fill="none" xmlns="http://www.w3.org/2000/svg">
<path d="M3.45956 27.3907C3.72568 27.3408 4.02507 27.3076 4.35772 27.3076C4.40762 25.5611 5.40557 22.6671 6.47006 19.6732C5.4721 19.5235 4.62384 19.5235 4.10823 19.8728C3.74231 18.4257 5.12282 18.143 7.01894 18.1763C8.00026 15.3986 8.94832 12.6875 9.14791 10.8745C7.56781 10.7747 6.17067 10.9411 5.28915 11.939C5.00639 12.2384 4.24129 8.46282 7.70087 7.83078C10.5118 7.31517 16.4995 9.61047 18.379 6.96588C18.6618 6.58333 18.8946 10.0429 17.0151 10.9743C15.8176 11.5565 14.2375 11.49 12.5909 11.2904C12.358 12.8871 11.4931 15.5317 10.5949 18.4091C12.5576 18.5422 14.2874 18.5255 14.6533 17.5941C15.2354 21.0703 12.7572 20.9539 9.99617 20.3884C9.23107 22.9498 8.51587 25.5445 8.24975 27.6568C10.6615 27.9396 13.0732 28.0394 14.1377 26.5258C14.4204 26.1433 14.6533 29.6029 12.7738 30.5177C9.48056 32.1476 3.40966 28.8211 1.04783 31.4823C0.765077 31.7817 -2.31937e-05 28.0061 3.45956 27.3907ZM17.4808 17.1617C17.4642 17.0951 21.1567 16.7625 21.0901 18.8915C21.0402 20.2553 17.8468 27.241 18.5121 29.4864C20.1421 27.4074 24.4832 17.1617 24.4832 17.1617C24.4665 17.0951 28.159 16.7625 28.0758 18.8915C28.0259 20.272 25.2316 25.8439 25.5144 29.5862C26.7951 28.239 28.3419 24.5299 28.6247 23.8313C28.658 23.7648 28.7245 23.7316 28.791 23.7316C28.9241 23.7316 29.0072 23.848 28.974 23.9644C28.5748 25.1952 26.9115 30.2682 26.0466 30.7838C25.0487 31.3992 22.3376 30.368 22.0881 29.2369C21.6057 27.1412 23.6349 22.1515 24.3168 19.141C22.9862 22.6172 19.9092 30.4179 18.8447 30.8836C17.8634 31.2994 15.2022 30.4511 14.986 29.1205C14.5868 26.7088 17.9965 19.0911 17.4808 17.1617ZM24.8824 38.9171C24.2004 34.7257 30.5541 20.6213 29.8888 17.1284C29.8721 17.0619 33.7143 17.1284 33.4814 19.2407C33.2652 21.2533 30.4044 29.187 29.0571 35.0916C31.4689 26.1433 36.1094 17.6773 36.8246 17.2615C37.4732 16.8789 39.4692 17.4444 40.2842 18.8748C41.3819 20.8042 39.0533 30.1185 35.1946 30.9002C34.3297 31.0832 32.2839 29.8025 31.8681 29.2868C30.4376 32.9626 29.107 37.0709 28.475 40.8631C28.3918 41.2623 25.1651 40.6469 24.8824 38.9171ZM37.1739 18.3093C36.9576 18.2262 34.3962 22.8667 32.051 28.8045C35.128 30.5343 37.9556 18.6253 37.1739 18.3093ZM39.9515 28.9875C39.2696 24.7794 45.7064 10.1926 45.2739 7.08231C45.2573 7.01578 48.7834 7.19874 48.5506 9.31108C48.3177 11.49 44.9413 20.6712 43.8103 26.6589C45.4236 22.6671 48.2345 16.9621 49.8479 17.1118C50.7793 17.1949 52.6588 18.0765 52.8251 18.642C53.2908 20.2054 50.0309 27.3408 49.9643 29.7027C51.2617 28.4552 52.8917 24.5465 53.1744 23.8313C53.2077 23.7648 53.2742 23.7316 53.3407 23.7316C53.4738 23.7316 53.557 23.848 53.5237 23.9644C53.1245 25.1952 51.2949 30.8337 50.5631 30.9335C49.1161 31.1331 46.6711 30.0852 46.4715 28.7712C46.222 26.9915 49.0662 21.22 49.3489 18.4257C48.5173 18.2927 43.5109 28.3055 43.5441 30.8836C43.6439 31.3493 40.2509 30.7505 39.9515 28.9875ZM52.9748 28.7546C51.9935 25.977 54.2223 19.0245 56.7338 17.4112C57.5987 16.8457 59.9439 16.9953 60.6924 17.4943C61.341 17.9101 60.9252 18.3093 60.9252 18.3093C58.2141 17.0452 55.0206 28.8211 56.2681 29.9688C57.7151 31.2994 61.1581 20.405 59.079 19.9726C59.079 19.9726 60.0437 18.6087 60.8753 18.7085C63.7528 19.0911 61.5739 28.871 57.5488 30.7671C56.451 31.2828 53.8397 31.183 52.9748 28.7546ZM61.6903 29.1538C61.2579 26.5092 64.5345 19.0578 64.0023 17.1284C63.9856 17.0619 67.8776 16.7625 67.8111 18.8915C67.7612 20.089 65.6489 24.4468 65.283 28.0228C66.547 24.0975 69.4411 16.9454 71.2374 17.1118C72.1689 17.1949 73.7989 17.96 73.9652 18.5089C74.1814 19.2407 71.9526 22.7336 72.5514 24.8958C67.5949 24.6796 70.805 19.0744 70.7385 18.4257C69.9068 18.2927 65.4493 28.2057 65.4659 30.8004C65.4826 30.9002 65.3661 30.9667 65.283 30.9501C64.5678 30.8669 61.9065 30.4844 61.6903 29.1538ZM78.9217 16.8623C74.1648 16.2302 77.1919 13.5524 76.9923 11.7893C82.1484 12.621 78.5059 14.4007 78.9217 16.8623ZM72.5348 29.1538C72.0691 26.609 75.4954 19.0578 74.9798 17.1284C74.9631 17.0619 78.8219 16.7625 78.7554 18.8915C78.7055 20.272 75.9445 25.7607 76.1773 29.5031C77.4414 28.0893 78.9383 24.5133 79.2211 23.8313C79.2377 23.7648 79.3042 23.7316 79.3874 23.7316C79.5038 23.7316 79.587 23.848 79.5537 23.9644C79.1712 25.1952 77.3582 30.5177 76.5599 30.9002C75.7449 31.2661 72.751 30.4012 72.5348 29.1538ZM82.4811 30.8836C81.8823 31.2994 79.1878 30.5676 78.5724 29.4532C77.774 28.0228 79.77 20.7709 81.5995 18.4257C83.03 16.6128 86.1236 17.0619 86.8555 17.4943C87.0384 17.5941 87.1049 17.6939 87.0051 17.9767C86.8887 18.2927 86.6559 18.2262 86.2899 18.1264C84.4271 17.644 81.6328 27.8564 81.8158 29.9355L87.7536 17.2947C87.9532 16.7459 91.4793 17.6606 91.1467 18.3592C90.814 19.0578 88.3857 27.3408 88.3191 29.7027C89.6165 28.4552 91.2631 24.5465 91.5458 23.8313C91.5791 23.7648 91.6456 23.7316 91.7122 23.7316C91.8286 23.7316 91.9284 23.848 91.8785 23.9644C91.496 25.1952 89.6664 30.8337 88.9345 30.9335C87.4709 31.1331 85.0259 30.0852 84.8429 28.7712C84.6766 27.6568 85.5914 24.2139 86.4396 21.3864C84.976 25.1786 82.8137 30.6507 82.4811 30.8836Z" fill="#3C4242"/>
<path d="M0.567261 33.6259H22.9706" stroke="#333333" stroke-width="0.420324" stroke-miterlimit="10" stroke-linecap="round" stroke-linejoin="round"/>
<path d="M32.553 33.6259H91.6034" stroke="#3C4242" stroke-width="0.420324" stroke-miterlimit="10" stroke-linecap="round" stroke-linejoin="round"/>
<path d="M40.5178 41.2617C40.3541 41.2617 40.1652 41.1972 39.9493 41.0689C39.7343 40.9398 39.5054 40.7693 39.2642 40.5565C39.023 40.3438 38.7856 40.1126 38.5513 39.8621C38.3178 39.6125 38.102 39.3636 37.9053 39.1155C37.7087 38.8682 37.5435 38.6477 37.4099 38.4549L36.3299 40.7862C36.2776 40.8999 36.1962 40.9805 36.0848 41.0274C35.9735 41.0743 35.8529 41.1027 35.7231 41.1127C35.5932 41.1227 35.465 41.1273 35.339 41.1273C35.435 40.989 35.5341 40.83 35.634 40.6518C35.7346 40.4736 35.8529 40.2585 35.9904 40.0058C36.1279 39.7531 36.2892 39.4466 36.4751 39.0848C36.6609 38.7238 36.8814 38.2913 37.138 37.789C37.3937 37.2866 37.6964 36.6967 38.0459 36.0184C38.0682 35.9785 38.0981 35.9232 38.135 35.8517C38.1719 35.7803 38.1911 35.7142 38.1911 35.6551C38.1911 35.6005 38.1726 35.5575 38.135 35.5253C38.0981 35.493 38.0275 35.4769 37.9238 35.4769C37.7456 35.4769 37.5727 35.5253 37.406 35.6213C37.2394 35.7173 37.0903 35.8402 36.9605 35.9892C36.8307 36.1375 36.7285 36.2911 36.654 36.4493C36.5795 36.6076 36.5427 36.7489 36.5427 36.8726C36.5427 36.967 36.5611 37.0508 36.598 37.1253C36.3529 37.1253 36.1801 37.0846 36.0802 37.0032C35.9796 36.9217 35.9297 36.8211 35.9297 36.702C35.9297 36.5338 36.0034 36.3656 36.1524 36.1974C36.3007 36.0292 36.492 35.874 36.7262 35.7334C36.9605 35.5921 37.2056 35.4799 37.4613 35.3954C37.7171 35.3117 37.9491 35.2695 38.1573 35.2695C38.3578 35.2695 38.4929 35.3063 38.5636 35.3809C38.6343 35.4554 38.6696 35.5368 38.6696 35.6259C38.6696 35.6804 38.6604 35.735 38.642 35.7895C38.6235 35.844 38.6028 35.8963 38.5805 35.9454L37.6449 37.9649C37.7486 37.8658 37.8846 37.7744 38.0513 37.6899C38.218 37.6061 38.4023 37.5094 38.6028 37.4003C38.9369 37.2221 39.2949 37.0139 39.6774 36.7766C40.0599 36.5392 40.4256 36.2888 40.7743 36.0268C41.123 35.7641 41.4126 35.5122 41.6431 35.2695C41.6799 35.2994 41.7061 35.3509 41.7214 35.4254C41.736 35.4999 41.7437 35.5568 41.7437 35.5959C41.7437 35.7496 41.6492 35.9178 41.4595 36.1006C41.2698 36.2834 41.0232 36.4731 40.719 36.6682C40.4148 36.8641 40.0807 37.0569 39.7166 37.2474C39.3525 37.4379 38.9945 37.6177 38.642 37.7859C38.2894 37.9541 37.9714 38.1 37.6895 38.2237C37.9122 38.4764 38.1296 38.7161 38.3409 38.9442C38.5521 39.1716 38.7825 39.3944 39.0314 39.6125C39.2803 39.8307 39.5714 40.0534 39.9055 40.2808C40.2397 40.5081 40.6445 40.7532 41.1192 41.0159C41.067 41.0804 40.9855 41.1372 40.8742 41.1864C40.7628 41.2371 40.6437 41.2617 40.5178 41.2617Z" fill="#3C4242"/>
<path d="M46.4764 40.9796C46.0232 40.9796 45.6875 40.8882 45.4686 40.7046C45.2497 40.5218 45.1398 40.3013 45.1398 40.044C44.8203 40.3259 44.4531 40.5464 44.0376 40.7046C43.622 40.8628 43.2018 40.9419 42.7794 40.9419C42.3262 40.9419 41.9866 40.859 41.76 40.6931C41.5334 40.5272 41.4205 40.3228 41.4205 40.0809C41.4205 39.8581 41.5043 39.6231 41.6709 39.3757C41.8384 39.1284 42.0612 38.8956 42.3392 38.6775C42.6173 38.4601 42.9238 38.2827 43.2579 38.1467C43.5921 38.0107 43.9223 37.9424 44.2496 37.9424C44.4201 37.9424 44.5783 37.9723 44.7227 38.0315C44.8679 38.0906 44.9401 38.212 44.9401 38.3956C44.9401 38.5838 44.8564 38.7604 44.6897 38.9264C44.523 39.0923 44.3033 39.2398 44.033 39.368C43.7618 39.4971 43.4645 39.6016 43.1419 39.6837C42.8193 39.7659 42.4975 39.8159 42.1787 39.8358C42.1641 39.8858 42.1526 39.9326 42.1449 39.9772C42.1372 40.0217 42.1334 40.064 42.1334 40.1031C42.1334 40.2022 42.1595 40.2998 42.2117 40.3966C42.2632 40.4934 42.3523 40.5725 42.479 40.6339C42.605 40.6961 42.7832 40.7269 43.0136 40.7269C43.4069 40.7269 43.7971 40.6339 44.1835 40.4488C44.5691 40.2629 44.9071 40.034 45.1967 39.7621C45.2635 39.5593 45.3826 39.3565 45.5531 39.153C45.7236 38.9502 45.9303 38.7658 46.1714 38.5999C46.4126 38.434 46.6746 38.3003 46.9565 38.1989C47.2384 38.0975 47.5249 38.0468 47.8145 38.0468C47.985 38.0468 48.1432 38.0768 48.2877 38.136C48.4321 38.1951 48.505 38.3165 48.505 38.5C48.505 38.7528 48.3768 38.974 48.121 39.1645C47.8652 39.355 47.5364 39.5071 47.1355 39.6215C46.7345 39.7352 46.3228 39.8074 45.8995 39.8366C45.8849 39.8865 45.8734 39.9334 45.8657 39.9779C45.858 40.0225 45.8542 40.0647 45.8542 40.1039C45.8542 40.203 45.878 40.3044 45.9264 40.4081C45.9748 40.5118 46.0601 40.5971 46.1822 40.6639C46.3051 40.7307 46.481 40.7637 46.7114 40.7637C47.031 40.7637 47.3498 40.7008 47.6693 40.5748C47.9889 40.4488 48.2854 40.2829 48.5603 40.077C48.8353 39.8719 49.065 39.6499 49.2509 39.4126L49.3846 39.4794C49.1841 39.7767 48.926 40.0379 48.6103 40.2629C48.2946 40.488 47.9535 40.6639 47.5856 40.7899C47.2169 40.9166 46.8474 40.9796 46.4764 40.9796ZM42.2332 39.6945C42.4337 39.6499 42.6603 39.5847 42.9123 39.4979C43.165 39.4111 43.4077 39.3089 43.642 39.1898C43.8763 39.0708 44.0691 38.9402 44.2212 38.7965C44.3732 38.6529 44.4493 38.5024 44.4493 38.3434C44.4493 38.2888 44.4347 38.2466 44.4047 38.2174C44.3748 38.1874 44.3118 38.1728 44.2158 38.1728C44.0376 38.1728 43.8478 38.2189 43.6474 38.3103C43.4469 38.4017 43.2541 38.5216 43.0682 38.6706C42.8823 38.8188 42.7156 38.9824 42.5666 39.1606C42.4183 39.3381 42.307 39.5163 42.2332 39.6945ZM45.9533 39.6945C46.1538 39.6499 46.3727 39.5908 46.6108 39.5163C46.8482 39.4418 47.0748 39.3542 47.2906 39.2528C47.5057 39.1514 47.6839 39.0354 47.8252 38.9041C47.9658 38.7727 48.0365 38.6283 48.0365 38.4701C48.0365 38.4156 48.018 38.3695 47.9804 38.3326C47.9435 38.2957 47.8767 38.2773 47.7799 38.2773C47.5426 38.2773 47.3029 38.3464 47.0617 38.4855C46.8205 38.6237 46.6016 38.8012 46.4042 39.0162C46.2076 39.2305 46.057 39.4571 45.9533 39.6945Z" fill="#3C4242"/>
<path d="M48.315 42.6948C48.2559 42.6948 48.1983 42.6741 48.1422 42.6319C48.0861 42.5896 48.0439 42.5451 48.0139 42.4982C47.984 42.4513 47.9694 42.4229 47.9694 42.4129C48.0731 42.1702 48.1752 41.9536 48.2758 41.7631C48.3765 41.5726 48.4763 41.3767 48.577 41.1762C48.6768 40.9758 48.7759 40.7407 48.8719 40.4711C48.9687 40.2015 49.0686 39.8658 49.173 39.4648C49.2767 39.0639 49.3812 38.5661 49.4849 37.9724C49.4926 37.9278 49.5072 37.8955 49.5294 37.8756C49.5517 37.8556 49.607 37.8456 49.6961 37.8456C49.8889 37.8456 50.0264 37.8817 50.1086 37.9532C50.19 38.0246 50.2307 38.1029 50.2307 38.1867C50.2307 38.2558 50.2085 38.3795 50.1639 38.5577C50.1194 38.7359 50.0564 38.9463 49.975 39.1891C50.1009 39.0255 50.2592 38.8596 50.4481 38.6913C50.6371 38.5231 50.8545 38.3818 51.0995 38.2681C51.3445 38.1544 51.6119 38.0976 51.9014 38.0976C52.2279 38.0976 52.4975 38.1759 52.7087 38.3311C52.92 38.487 53.026 38.6913 53.026 38.944C53.026 39.1368 52.9607 39.3412 52.8309 39.5562C52.7011 39.7713 52.519 39.9749 52.2855 40.1654C52.052 40.3559 51.7747 40.511 51.4559 40.6293C51.1364 40.7484 50.7838 40.8075 50.3982 40.8075C50.2046 40.8075 50.0495 40.7929 49.9304 40.763C49.8113 40.733 49.7522 40.7038 49.7522 40.6739C49.7522 40.6539 49.7799 40.6432 49.8359 40.6401C49.892 40.6378 49.9565 40.6362 50.031 40.6362C50.3283 40.6362 50.6117 40.5879 50.8829 40.4911C51.154 40.3943 51.3968 40.2668 51.6126 40.1085C51.8277 39.9503 51.9967 39.7744 52.1196 39.5816C52.2417 39.3888 52.3032 39.1983 52.3032 39.0101C52.3032 38.8519 52.2532 38.7167 52.1526 38.6053C52.0528 38.4939 51.8907 38.4386 51.6679 38.4386C51.4751 38.4386 51.2839 38.4793 51.0941 38.5607C50.9044 38.6422 50.7262 38.7466 50.5595 38.8726C50.3921 38.9986 50.2438 39.1299 50.114 39.2659C49.9842 39.4019 49.8859 39.5248 49.819 39.6331C49.6854 40.0041 49.5517 40.362 49.4181 40.7061C49.2844 41.0503 49.1561 41.3621 49.034 41.6417C48.9111 41.9213 48.8005 42.1502 48.6999 42.3284C48.6 42.5067 48.5163 42.6157 48.4494 42.6549C48.411 42.6826 48.3665 42.6948 48.315 42.6948Z" fill="#3C4242"/>
<path d="M57.0693 40.8083C56.7797 40.8083 56.5638 40.7476 56.4233 40.6263C56.2819 40.5049 56.212 40.3574 56.212 40.1846C56.212 40.0709 56.2435 39.9273 56.3065 39.7537C56.3695 39.5808 56.4532 39.3988 56.5569 39.2083C56.6606 39.0178 56.7812 38.838 56.9187 38.6698C57.0562 38.5016 57.2029 38.3641 57.3589 38.2573C57.5148 38.1513 57.6669 38.0976 57.8159 38.0976C57.8827 38.0976 57.9403 38.1114 57.9887 38.1383C58.0371 38.1652 58.0609 38.2066 58.0609 38.2604C58.0609 38.3196 58.0033 38.4163 57.8881 38.55C57.7729 38.6836 57.6377 38.8373 57.4818 39.0101C57.3258 39.1837 57.1906 39.365 57.0754 39.5555C56.9602 39.746 56.9026 39.928 56.9026 40.1016C56.9026 40.2798 56.9471 40.3989 57.0362 40.458C57.1253 40.5172 57.2628 40.5471 57.4487 40.5471C57.7014 40.5471 57.9703 40.4634 58.256 40.2944C58.5418 40.1262 58.8444 39.832 59.164 39.4111L59.2638 39.4856C59.0488 39.9111 58.7384 40.2383 58.3336 40.4657C57.928 40.6946 57.5071 40.8083 57.0693 40.8083ZM58.4051 37.4078C58.286 37.4078 58.1808 37.3878 58.0878 37.3486C57.9949 37.3087 57.9488 37.2472 57.9488 37.1627C57.9488 37.059 58.0394 36.9684 58.2215 36.8916C58.4035 36.8148 58.5833 36.7764 58.7615 36.7764C58.8729 36.7764 58.962 36.794 59.0288 36.8286C59.0956 36.8632 59.1286 36.9231 59.1286 37.0068C59.1286 37.1005 59.0526 37.1912 58.9005 37.278C58.7492 37.3648 58.584 37.4078 58.4051 37.4078Z" fill="#3C4242"/>
<path d="M59.8973 40.9573C59.5777 40.9573 59.3327 40.8951 59.1622 40.7714C58.9916 40.6478 58.9064 40.4649 58.9064 40.2222C58.9064 40.0048 58.9678 39.736 59.09 39.4164C59.2121 39.0969 59.3665 38.7697 59.5524 38.4325C59.4779 38.4225 59.408 38.414 59.3411 38.4063C59.2743 38.3987 59.2113 38.3879 59.1522 38.3733V38.2396C59.2113 38.2443 59.282 38.2496 59.3634 38.2542C59.4448 38.2589 59.5378 38.2642 59.6415 38.2688C59.7974 38.0015 59.9649 37.7427 60.1423 37.493C60.3205 37.2434 60.4972 37.0206 60.6715 36.8247C60.8459 36.6296 61.0134 36.4729 61.1731 36.357C61.3329 36.241 61.4681 36.1826 61.5795 36.1826C61.6386 36.1826 61.6924 36.1964 61.7408 36.2233C61.7892 36.2502 61.813 36.2917 61.813 36.3454C61.813 36.4299 61.7354 36.5667 61.5795 36.7579C61.4236 36.9484 61.2307 37.175 61.0003 37.4369C60.7699 37.6996 60.5471 37.9839 60.332 38.2911C60.3989 38.2911 60.4672 38.2911 60.5379 38.2911C60.6086 38.2911 60.6769 38.2911 60.7438 38.2911C60.9888 38.2911 61.2469 38.2888 61.518 38.2834C61.7892 38.2788 62.0619 38.2658 62.3369 38.2466V38.3802C61.9282 38.4102 61.5626 38.4325 61.24 38.447C60.9173 38.4616 60.6293 38.4693 60.3766 38.4693C60.3466 38.4693 60.319 38.4693 60.2929 38.4693C60.2667 38.4693 60.2391 38.4693 60.2091 38.4693C60.0386 38.732 59.8934 39.0016 59.7751 39.2789C59.6561 39.5562 59.5969 39.8258 59.5969 40.0885C59.5969 40.3013 59.6453 40.4534 59.7413 40.5448C59.8374 40.6362 59.9971 40.6823 60.2207 40.6823C60.607 40.6823 60.9857 40.5686 61.3567 40.3405C61.7277 40.1131 62.0542 39.8036 62.3369 39.4126L62.4813 39.4871C62.3031 39.7644 62.078 40.014 61.8076 40.2368C61.5365 40.4596 61.2377 40.6355 60.9112 40.7637C60.584 40.8928 60.2468 40.9573 59.8973 40.9573Z" fill="#3C4242"/>
<path d="M66.2128 41.0311C65.8564 41.0311 65.5591 40.952 65.3217 40.7937C65.0844 40.6355 64.9653 40.3981 64.9653 40.0809C64.9653 39.8336 65.0375 39.5924 65.1827 39.3565C65.3271 39.1215 65.5184 38.9103 65.7565 38.7221C65.9939 38.5339 66.2573 38.3841 66.5469 38.2727C66.8365 38.1613 67.1223 38.106 67.4049 38.106C67.7091 38.106 67.9173 38.1652 68.0287 38.2842C68.14 38.4033 68.1953 38.527 68.1953 38.6552C68.1953 38.7989 68.1454 38.9249 68.0448 39.0339C67.9449 39.143 67.809 39.1975 67.6384 39.1975C67.5125 39.1975 67.4049 39.1607 67.3151 39.0862C67.4264 39.047 67.5232 38.9663 67.6046 38.845C67.6861 38.7236 67.7275 38.6084 67.7275 38.4993C67.7275 38.4402 67.7106 38.3941 67.6776 38.3618C67.6438 38.3295 67.5793 38.3134 67.4825 38.3134C67.282 38.3134 67.0762 38.3726 66.8642 38.4916C66.6529 38.6107 66.4555 38.7635 66.2742 38.9517C66.0922 39.1399 65.9439 39.3381 65.8287 39.5455C65.7135 39.7537 65.6559 39.9488 65.6559 40.1324C65.6559 40.286 65.712 40.4266 65.8233 40.5556C65.9347 40.6839 66.1498 40.7484 66.4693 40.7484C66.7666 40.7484 67.0654 40.6939 67.3658 40.5848C67.6661 40.4757 67.9465 40.3198 68.2069 40.117C68.4665 39.9142 68.6747 39.6761 68.8306 39.4042L68.975 39.4787C68.8045 39.7759 68.5702 40.0417 68.2737 40.2768C67.9764 40.5118 67.65 40.6962 67.2935 40.8298C66.9364 40.9642 66.5761 41.0311 66.2128 41.0311Z" fill="#3C4242"/>
<path d="M69.543 40.8383C69.2235 40.8383 68.9953 40.7653 68.8578 40.6193C68.7203 40.4734 68.652 40.2914 68.652 40.074C68.652 39.8366 68.7188 39.5539 68.8525 39.2275C68.9861 38.901 69.1628 38.5569 69.3817 38.1951C69.6006 37.8341 69.8403 37.4815 70.0999 37.1366C70.3595 36.7925 70.6192 36.4799 70.8796 36.1972C71.1392 35.9153 71.3789 35.6895 71.5978 35.5212C71.8167 35.353 71.9895 35.2685 72.1155 35.2685C72.1969 35.2685 72.2637 35.2993 72.316 35.3615C72.3682 35.4237 72.4089 35.4974 72.4389 35.5842C72.4681 35.671 72.4834 35.7486 72.4834 35.8177C72.4834 35.9514 72.4335 36.1258 72.3329 36.3416C72.233 36.5567 72.0917 36.7971 71.9096 37.0621C71.7276 37.3271 71.5125 37.5944 71.2636 37.864C71.0148 38.1337 70.7436 38.3925 70.4509 38.6399C70.1575 38.8872 69.848 39.1 69.5207 39.2782C69.4762 39.4118 69.4409 39.5417 69.4147 39.6684C69.3886 39.7944 69.3756 39.915 69.3756 40.0287C69.3756 40.2215 69.4163 40.3651 69.4977 40.4596C69.5791 40.5533 69.702 40.6009 69.8656 40.6009C70.0661 40.6009 70.2651 40.5418 70.4617 40.4227C70.6583 40.3036 70.8442 40.1539 71.0186 39.9733C71.193 39.7928 71.3435 39.6062 71.4695 39.4126L71.6362 39.4718C71.3389 39.8927 71.0163 40.2253 70.6668 40.4703C70.3188 40.7161 69.944 40.8383 69.543 40.8383ZM69.6214 39.0262C69.881 38.8526 70.1337 38.6537 70.3787 38.4286C70.6238 38.2036 70.8519 37.9693 71.0639 37.7273C71.2759 37.4846 71.4633 37.2495 71.6262 37.0222C71.789 36.7948 71.9158 36.5905 72.0049 36.41C72.094 36.2295 72.1385 36.0897 72.1385 35.9906C72.1385 35.9414 72.1293 35.9091 72.1109 35.8938C72.0925 35.8792 72.0755 35.8715 72.061 35.8715C72.0018 35.8715 71.8996 35.9345 71.7545 36.0605C71.6101 36.1864 71.4411 36.3562 71.2475 36.569C71.0547 36.7817 70.8581 37.0245 70.6576 37.2964C70.4571 37.5683 70.2658 37.8533 70.0838 38.1506C69.901 38.4471 69.7473 38.7397 69.6214 39.0262Z" fill="#3C4242"/>
<path d="M71.7816 40.9643C71.5512 40.9643 71.3561 40.9136 71.1971 40.8122C71.0373 40.7108 70.9574 40.5564 70.9574 40.3482C70.9574 40.17 71.0165 39.978 71.1356 39.7729C71.2539 39.5678 71.4175 39.3642 71.6257 39.1637C71.8338 38.9633 72.0697 38.7804 72.3331 38.6145C72.5966 38.4486 72.8747 38.3165 73.1689 38.2174C73.4623 38.1183 73.7534 38.0692 74.043 38.0692C74.3326 38.0692 74.5738 38.1198 74.7666 38.2212C74.9594 38.3226 75.0562 38.4578 75.0562 38.6261C75.0562 38.7497 75.0062 38.8342 74.9056 38.8788C74.805 38.9233 74.6736 38.9456 74.51 38.9456C74.5246 38.9056 74.5377 38.8626 74.5492 38.8158C74.5607 38.7689 74.5661 38.7259 74.5661 38.686C74.5661 38.5723 74.5254 38.4747 74.444 38.3925C74.3618 38.3111 74.2212 38.2704 74.0207 38.2704C73.8126 38.2704 73.6013 38.3188 73.3855 38.4148C73.1704 38.5116 72.9622 38.6399 72.7617 38.8012C72.5613 38.9625 72.3831 39.1369 72.2271 39.3251C72.0712 39.5132 71.9491 39.6991 71.8592 39.8819C71.7701 40.0648 71.7255 40.2284 71.7255 40.372C71.7255 40.5648 71.8254 40.6616 72.0266 40.6616C72.1972 40.6616 72.3831 40.6086 72.5835 40.5018C72.784 40.3958 72.9899 40.2591 73.2019 40.0932C73.4131 39.9273 73.6159 39.7552 73.8087 39.577C74.0015 39.3988 74.1728 39.2352 74.3211 39.0869C74.3503 39.057 74.3695 39.0424 74.3764 39.0424C74.4209 39.047 74.4785 39.057 74.5492 39.0723C74.6199 39.0869 74.6813 39.1069 74.7328 39.1315C74.785 39.1561 74.8111 39.1883 74.8111 39.2283C74.8111 39.2728 74.7773 39.3335 74.7105 39.4103C74.6437 39.4871 74.5692 39.5747 74.4877 39.6738C74.4056 39.7729 74.3318 39.8735 74.265 39.9749C74.1982 40.0763 74.1651 40.1715 74.1651 40.2606C74.1651 40.3351 74.1943 40.4081 74.2542 40.4796C74.3134 40.5518 74.4102 40.5871 74.5438 40.5871C74.7443 40.5871 75.0078 40.4895 75.3342 40.2937C75.6607 40.0986 75.9918 39.8051 76.3259 39.4134L76.4373 39.4879C76.2813 39.7552 76.0809 39.9903 75.8358 40.193C75.5908 40.3958 75.3289 40.5548 75.0508 40.6685C74.7727 40.7822 74.4993 40.839 74.232 40.839C73.957 40.839 73.7549 40.7845 73.6251 40.6754C73.4953 40.5664 73.43 40.4481 73.43 40.319C73.43 40.2891 73.4339 40.256 73.4415 40.2192C73.4485 40.1823 73.4561 40.1439 73.4638 40.1039C73.1443 40.3912 72.8532 40.6063 72.5897 40.7499C72.3254 40.8928 72.0558 40.9643 71.7816 40.9643Z" fill="#3C4242"/>
<path d="M77.2725 40.9942C76.9238 40.9942 76.6473 40.9435 76.4429 40.8421C76.2386 40.7407 76.0942 40.6155 76.0082 40.4673C75.9229 40.319 75.8799 40.17 75.8799 40.0217C75.8799 39.8735 75.9098 39.759 75.969 39.6799C76.0289 39.6008 76.1011 39.5417 76.1864 39.5017C76.2716 39.4618 76.3531 39.4326 76.4314 39.4126C76.5098 39.3926 76.5628 39.3727 76.5927 39.3535C76.8155 39.1899 77.0198 39.0193 77.2057 38.8411C77.3916 38.6629 77.5544 38.4747 77.6958 38.2765V38.1874C77.6958 38.0046 77.7418 37.874 77.8348 37.7972C77.9277 37.7204 78.026 37.682 78.1297 37.682C78.1889 37.682 78.2334 37.692 78.2634 37.712C78.2934 37.7319 78.308 37.7542 78.308 37.7788C78.308 37.8034 78.2972 37.8433 78.2749 37.8979C78.2527 37.9524 78.2411 38.0215 78.2411 38.106C78.2411 38.2696 78.2895 38.4463 78.3855 38.6368C78.4823 38.8273 78.5783 39.0278 78.6751 39.2382C78.7711 39.4487 78.8195 39.6676 78.8195 39.895C78.8195 39.9595 78.8142 40.0225 78.8026 40.084C78.7919 40.1462 78.775 40.2038 78.7527 40.2583C79.0123 40.2284 79.2574 40.1508 79.4878 40.0248C79.7182 39.8988 79.941 39.6968 80.1561 39.4195L80.2559 39.494C80.1146 39.766 79.9034 39.9726 79.6215 40.1139C79.3396 40.2553 79.0308 40.3428 78.6966 40.3774C78.5776 40.5902 78.3901 40.7461 78.1344 40.8452C77.8793 40.945 77.5913 40.9942 77.2725 40.9942ZM77.2948 40.7346C77.3839 40.7346 77.503 40.7146 77.6512 40.6754C77.7995 40.6355 77.9147 40.5341 77.9969 40.3712C77.685 40.3321 77.4085 40.2499 77.1673 40.1262C76.9261 40.0025 76.7456 39.8789 76.6273 39.7552C76.4637 39.7606 76.3822 39.8466 76.3822 40.0148C76.3822 40.193 76.4621 40.3574 76.6219 40.5087C76.7801 40.6585 77.0052 40.7346 77.2948 40.7346ZM78.0522 40.2514C78.0668 40.2023 78.0783 40.15 78.0852 40.0955C78.0929 40.041 78.0967 39.9764 78.0967 39.9027C78.0967 39.6699 78.0537 39.4387 77.9684 39.2083C77.8832 38.9778 77.811 38.7612 77.7511 38.5585C77.5805 38.7466 77.4 38.9264 77.2111 39.0969C77.0221 39.2674 76.8416 39.4103 76.6711 39.524C76.7824 39.6822 76.9553 39.8312 77.1888 39.9695C77.4231 40.1085 77.7103 40.2023 78.0522 40.2514Z" fill="#3C4242"/>
<path d="M81.1146 40.9942C80.7658 40.9942 80.4893 40.9435 80.285 40.8421C80.0806 40.7407 79.9362 40.6155 79.8502 40.4673C79.7649 40.319 79.7219 40.17 79.7219 40.0217C79.7219 39.8735 79.7519 39.759 79.811 39.6799C79.8709 39.6008 79.9431 39.5417 80.0284 39.5017C80.1137 39.4618 80.1951 39.4326 80.2734 39.4126C80.3518 39.3926 80.4048 39.3727 80.4348 39.3535C80.6575 39.1899 80.8618 39.0193 81.0477 38.8411C81.2336 38.6629 81.3965 38.4747 81.5378 38.2765V38.1874C81.5378 38.0046 81.5839 37.874 81.6768 37.7972C81.7698 37.7204 81.8681 37.682 81.9718 37.682C82.0309 37.682 82.0755 37.692 82.1054 37.712C82.1354 37.7319 82.15 37.7542 82.15 37.7788C82.15 37.8034 82.1392 37.8433 82.117 37.8979C82.0947 37.9524 82.0832 38.0215 82.0832 38.106C82.0832 38.2696 82.1316 38.4463 82.2276 38.6368C82.3244 38.8273 82.4204 39.0278 82.5172 39.2382C82.6132 39.4487 82.6616 39.6676 82.6616 39.895C82.6616 39.9595 82.6562 40.0225 82.6447 40.084C82.6339 40.1462 82.617 40.2038 82.5947 40.2583C82.8544 40.2284 83.0994 40.1508 83.3299 40.0248C83.5603 39.8988 83.783 39.6968 83.9981 39.4195L84.098 39.494C83.9566 39.766 83.7454 39.9726 83.4635 40.1139C83.1816 40.2553 82.8728 40.3428 82.5387 40.3774C82.4196 40.5902 82.2322 40.7461 81.9764 40.8452C81.7221 40.945 81.4341 40.9942 81.1146 40.9942ZM81.1368 40.7346C81.2259 40.7346 81.345 40.7146 81.4932 40.6754C81.6415 40.6355 81.7567 40.5341 81.8389 40.3712C81.527 40.3321 81.2505 40.2499 81.0093 40.1262C80.7681 40.0025 80.5876 39.8789 80.4693 39.7552C80.3057 39.7606 80.2243 39.8466 80.2243 40.0148C80.2243 40.193 80.3042 40.3574 80.4639 40.5087C80.6229 40.6585 80.8472 40.7346 81.1368 40.7346ZM81.8942 40.2514C81.9088 40.2023 81.9203 40.15 81.9272 40.0955C81.9349 40.041 81.9388 39.9764 81.9388 39.9027C81.9388 39.6699 81.8957 39.4387 81.8105 39.2083C81.7252 38.9778 81.653 38.7612 81.5931 38.5585C81.4226 38.7466 81.2421 38.9264 81.0531 39.0969C80.8641 39.2674 80.6836 39.4103 80.5131 39.524C80.6245 39.6822 80.7973 39.8312 81.0308 39.9695C81.2651 40.1085 81.5532 40.2023 81.8942 40.2514Z" fill="#3C4242"/>
<path d="M84.2673 42.6949C84.0814 42.6949 83.9185 42.6618 83.7772 42.595C83.6358 42.5282 83.5652 42.4306 83.5652 42.3016C83.5652 42.1433 83.6251 42.002 83.7434 41.8783C83.8617 41.7547 84.0215 41.641 84.2227 41.5365C84.4232 41.4328 84.6529 41.3337 84.9133 41.2392C85.1729 41.1455 85.444 41.0511 85.7259 40.9573C85.8296 40.7745 85.9356 40.5702 86.0432 40.3451C86.1507 40.1201 86.2529 39.8712 86.3497 39.5993C86.1123 39.8566 85.8581 40.0778 85.5869 40.2637C85.3158 40.4496 85.0277 40.5418 84.7235 40.5418C84.5822 40.5418 84.4432 40.521 84.3057 40.4788C84.1682 40.4365 84.0553 40.3713 83.9661 40.2822C83.877 40.193 83.8325 40.0794 83.8325 39.9403C83.8325 39.8021 83.8678 39.6408 83.9385 39.4579C84.0092 39.2751 84.096 39.0969 84.2004 38.9233C84.3041 38.7505 84.4117 38.6068 84.5238 38.4924C84.636 38.3779 84.732 38.3219 84.8134 38.3219C84.8434 38.3219 84.8971 38.3295 84.9747 38.3441C85.0531 38.3587 85.1268 38.3802 85.1975 38.4071C85.2681 38.4348 85.3035 38.4632 85.3035 38.4924C85.2366 38.5569 85.1621 38.6483 85.0807 38.7674C84.9985 38.8864 84.9194 39.0186 84.8411 39.1645C84.7635 39.3105 84.6982 39.4526 84.6459 39.5916C84.5937 39.7299 84.5684 39.8489 84.5684 39.948C84.5684 40.0371 84.5976 40.1085 84.6575 40.1631C84.7166 40.2176 84.8211 40.2445 84.9693 40.2445C85.1099 40.2445 85.2681 40.1992 85.4425 40.107C85.6169 40.0156 85.7912 39.8981 85.9664 39.7544C86.1407 39.6108 86.302 39.4572 86.4511 39.2943C86.4733 39.2398 86.4933 39.1845 86.5125 39.1276C86.531 39.0708 86.5478 39.0124 86.5624 38.9533C86.5847 38.8841 86.6385 38.8035 86.7238 38.7121C86.809 38.6207 86.945 38.5746 87.1301 38.5746C87.167 38.5746 87.2038 38.5761 87.2415 38.5784C87.2783 38.5807 87.3191 38.5869 87.3636 38.5969C87.3636 38.676 87.3283 38.8235 87.2576 39.0385C87.1869 39.2536 87.0863 39.5056 86.9565 39.7921C86.8267 40.0794 86.6723 40.3736 86.4941 40.6754C86.8428 40.5863 87.1846 40.4388 87.5188 40.2338C87.8529 40.0287 88.1241 39.7544 88.3315 39.4134L88.4759 39.4879C88.3645 39.7253 88.1955 39.9319 87.9689 40.1078C87.7423 40.2837 87.488 40.4342 87.2061 40.561C86.9242 40.687 86.6454 40.7922 86.3704 40.8767C86.1776 41.1932 85.9679 41.4904 85.7413 41.7677C85.5147 42.045 85.2774 42.2693 85.0285 42.4398C84.7811 42.6096 84.5269 42.6949 84.2673 42.6949ZM84.2112 42.4567C84.3226 42.4567 84.51 42.3592 84.7735 42.1633C85.0369 41.9674 85.3173 41.6248 85.6146 41.1348C85.3104 41.2439 85.0277 41.3514 84.7681 41.4582C84.5084 41.5642 84.3003 41.6794 84.1444 41.8038C83.9884 41.9275 83.9108 42.0711 83.9108 42.2347C83.9108 42.2747 83.9331 42.3215 83.9777 42.3761C84.0222 42.4299 84.0998 42.4567 84.2112 42.4567Z" fill="#3C4242"/>
<path d="M88.5658 40.69C88.469 40.69 88.386 40.6739 88.3154 40.6416C88.2447 40.6094 88.2094 40.5587 88.2094 40.4895C88.2094 40.435 88.2424 40.3843 88.3092 40.3375C88.376 40.2906 88.4598 40.253 88.5596 40.2261C88.6595 40.1992 88.7578 40.1854 88.8546 40.1854C88.9437 40.1854 89.0144 40.1977 89.0658 40.2222C89.1173 40.2468 89.1434 40.2944 89.1434 40.3636C89.1434 40.4135 89.1157 40.4627 89.0597 40.5118C89.0036 40.561 88.9314 40.6032 88.8423 40.6378C88.7532 40.6724 88.6626 40.69 88.5658 40.69Z" fill="#3C4242"/>
</svg>
