<svg width="22" height="20" viewBox="0 0 22 20" fill="none" xmlns="http://www.w3.org/2000/svg">
<path d="M6.75 5C6.33579 5 6 5.33579 6 5.75C6 6.16421 6.33579 6.5 6.75 6.5V5ZM14.75 6.5C15.1642 6.5 15.5 6.16421 15.5 5.75C15.5 5.33579 15.1642 5 14.75 5V6.5ZM6.75 9C6.33579 9 6 9.33579 6 9.75C6 10.1642 6.33579 10.5 6.75 10.5V9ZM10.75 10.5C11.1642 10.5 11.5 10.1642 11.5 9.75C11.5 9.33579 11.1642 9 10.75 9V10.5ZM20.532 13.658L21.2003 13.9985V13.9985L20.532 13.658ZM19.658 14.532L19.9985 15.2003L19.658 14.532ZM19.658 0.967987L19.9985 0.299732L19.9985 0.299732L19.658 0.967987ZM20.532 1.84202L21.2003 1.50153V1.50152L20.532 1.84202ZM1.84202 0.967987L2.18251 1.63624L2.18251 1.63624L1.84202 0.967987ZM0.967987 1.84202L1.63624 2.18251L1.63624 2.18251L0.967987 1.84202ZM1.95734 18.1361L2.39003 18.7487L2.39011 18.7486L1.95734 18.1361ZM5.91989 15.3365L5.48712 14.7239H5.48712L5.91989 15.3365ZM0.840271 18.2276L1.45486 17.7977H1.45486L0.840271 18.2276ZM1.85335 18.1983L1.5183 17.5273L1.51829 17.5273L1.85335 18.1983ZM1.17692 18.4356L1.0673 19.1776H1.0673L1.17692 18.4356ZM1.91983 18.162L1.51547 17.5303L1.51536 17.5304L1.91983 18.162ZM1.89376 18.1776L1.5285 17.5225L1.52845 17.5225L1.89376 18.1776ZM7.01828 14.784L7.15589 15.5212L7.15589 15.5212L7.01828 14.784ZM6.55048 14.9325L6.86351 15.6141L6.86352 15.6141L6.55048 14.9325ZM6.75 6.5H14.75V5H6.75V6.5ZM6.75 10.5H10.75V9H6.75V10.5ZM3.95 1.5H17.55V0H3.95V1.5ZM20 3.95V11.55H21.5V3.95H20ZM20 11.55C20 12.1224 19.9994 12.5066 19.9752 12.8025C19.9518 13.0896 19.9099 13.2269 19.8638 13.3175L21.2003 13.9985C21.3721 13.6612 21.4392 13.3046 21.4703 12.9247C21.5006 12.5535 21.5 12.0977 21.5 11.55H20ZM17.55 15.5C18.0977 15.5 18.5535 15.5006 18.9247 15.4703C19.3046 15.4392 19.6612 15.3721 19.9985 15.2003L19.3175 13.8638C19.2269 13.9099 19.0896 13.9518 18.8025 13.9752C18.5066 13.9994 18.1224 14 17.55 14V15.5ZM19.8638 13.3175C19.7439 13.5527 19.5527 13.7439 19.3175 13.8638L19.9985 15.2003C20.5159 14.9366 20.9366 14.5159 21.2003 13.9985L19.8638 13.3175ZM17.55 1.5C18.1224 1.5 18.5066 1.50058 18.8025 1.52476C19.0896 1.54822 19.2269 1.5901 19.3175 1.63624L19.9985 0.299732C19.6612 0.127888 19.3046 0.0607771 18.9247 0.0297393C18.5535 -0.000583231 18.0977 0 17.55 0V1.5ZM21.5 3.95C21.5 3.40232 21.5006 2.94646 21.4703 2.57533C21.4392 2.19545 21.3721 1.83879 21.2003 1.50153L19.8638 2.18251C19.9099 2.27307 19.9518 2.41035 19.9752 2.69748C19.9994 2.99336 20 3.37757 20 3.95H21.5ZM19.3175 1.63624C19.5527 1.75608 19.7439 1.94731 19.8638 2.18251L21.2003 1.50152C20.9366 0.984081 20.5159 0.563385 19.9985 0.299732L19.3175 1.63624ZM3.95 0C3.40232 0 2.94646 -0.000583231 2.57533 0.0297393C2.19544 0.0607771 1.83879 0.127888 1.50153 0.299732L2.18251 1.63624C2.27307 1.5901 2.41035 1.54822 2.69748 1.52476C2.99336 1.50058 3.37757 1.5 3.95 1.5V0ZM1.5 3.95C1.5 3.37757 1.50058 2.99336 1.52476 2.69748C1.54822 2.41035 1.5901 2.27307 1.63624 2.18251L0.299732 1.50153C0.127888 1.83879 0.0607771 2.19545 0.0297393 2.57533C-0.000583231 2.94646 0 3.40232 0 3.95H1.5ZM1.50153 0.299732C0.98408 0.563384 0.563384 0.98408 0.299732 1.50153L1.63624 2.18251C1.75608 1.94731 1.94731 1.75608 2.18251 1.63624L1.50153 0.299732ZM17.55 14H7.76639V15.5H17.55V14ZM2.39011 18.7486L6.35267 15.949L5.48712 14.7239L1.52457 17.5236L2.39011 18.7486ZM0 17.4556C0 17.6552 -0.000747502 17.8567 0.0144057 18.0223C0.0294603 18.1867 0.0673863 18.4311 0.22568 18.6574L1.45486 17.7977C1.52289 17.895 1.51568 17.9676 1.50816 17.8855C1.50499 17.8509 1.50258 17.801 1.5013 17.726C1.50002 17.6514 1.5 17.5646 1.5 17.4556H0ZM1.51829 17.5273C1.43118 17.5708 1.36175 17.6052 1.3023 17.6332C1.24244 17.6614 1.2029 17.6783 1.17597 17.6884C1.11294 17.7122 1.17374 17.677 1.28654 17.6937L1.0673 19.1776C1.32835 19.2161 1.55366 19.1491 1.70491 19.0921C1.8554 19.0354 2.02432 18.9513 2.18841 18.8693L1.51829 17.5273ZM0.225679 18.6574C0.422743 18.9392 0.727163 19.1273 1.0673 19.1776L1.28654 17.6937C1.35457 17.7037 1.41545 17.7413 1.45486 17.7977L0.225679 18.6574ZM1.5 17.4556V3.95H0V17.4556H1.5ZM1.52465 17.5235C1.51983 17.5269 1.51637 17.5293 1.51338 17.5314C1.51043 17.5335 1.50887 17.5346 1.50804 17.5352C1.50672 17.5361 1.51002 17.5338 1.51547 17.5303L2.3242 18.7936C2.35147 18.7762 2.37688 18.758 2.39003 18.7487L1.52465 17.5235ZM2.1884 18.8693C2.20307 18.862 2.2308 18.8483 2.25907 18.8326L1.52845 17.5225C1.53396 17.5195 1.53751 17.5177 1.53623 17.5183C1.53538 17.5188 1.53372 17.5196 1.53053 17.5212C1.52732 17.5228 1.52354 17.5247 1.5183 17.5273L2.1884 18.8693ZM1.51536 17.5304C1.51971 17.5276 1.52403 17.525 1.5285 17.5225L2.25902 18.8326C2.28112 18.8203 2.30295 18.8072 2.3243 18.7935L1.51536 17.5304ZM7.76639 14C7.41604 14 7.1465 13.9971 6.88067 14.0467L7.15589 15.5212C7.25388 15.5029 7.3618 15.5 7.76639 15.5V14ZM6.35266 15.949C6.6831 15.7156 6.77294 15.6557 6.86351 15.6141L6.23745 14.251C5.9917 14.3639 5.77325 14.5218 5.48712 14.7239L6.35266 15.949ZM6.88067 14.0467C6.65869 14.0881 6.44265 14.1567 6.23745 14.251L6.86352 15.6141C6.95679 15.5712 7.05499 15.5401 7.15589 15.5212L6.88067 14.0467Z" fill="#807D7E"/>
</svg>
