<svg width="154" height="52" viewBox="0 0 154 52" fill="none" xmlns="http://www.w3.org/2000/svg">
<path d="M153.762 37.6711C153.762 45.1289 147.652 51.239 140.194 51.239H13.5679C6.11003 51.239 0 45.1289 0 37.6711V13.5678C0 6.10999 6.11003 0 13.5679 0H140.194C147.652 0 153.762 6.10999 153.762 13.5678V37.6711Z" fill="#404040"/>
<path d="M54.9269 14.4H55.6569V19H54.9269V18.17C54.5769 18.72 53.9969 19.08 53.2169 19.08C51.9069 19.08 50.9769 18.07 50.9769 16.7C50.9769 15.32 51.9069 14.33 53.2169 14.33C53.9969 14.33 54.5769 14.68 54.9269 15.23V14.4ZM53.3069 18.39C54.2969 18.39 54.9269 17.68 54.9269 16.7C54.9269 15.72 54.2969 15.02 53.3069 15.02C52.3269 15.02 51.6769 15.72 51.6769 16.7C51.6769 17.68 52.3269 18.39 53.3069 18.39ZM59.1079 14.33C60.0279 14.33 60.9379 14.87 60.9379 16.17V19H60.2179V16.27C60.2179 15.39 59.5979 14.96 58.9179 14.96C58.2279 14.96 57.6279 15.39 57.6279 16.27V19H56.9079V14.4H57.6279V15.02C57.9779 14.54 58.5379 14.33 59.1079 14.33ZM66.0109 12.5H66.7409V19H66.0109V18.17C65.6609 18.72 65.0809 19.08 64.3009 19.08C62.9909 19.08 62.0609 18.07 62.0609 16.7C62.0609 15.32 62.9909 14.33 64.3009 14.33C65.0809 14.33 65.6609 14.68 66.0109 15.23V12.5ZM64.3909 18.39C65.3809 18.39 66.0109 17.68 66.0109 16.7C66.0109 15.72 65.3809 15.02 64.3909 15.02C63.4109 15.02 62.7609 15.72 62.7609 16.7C62.7609 17.68 63.4109 18.39 64.3909 18.39ZM68.7119 15.25C69.0619 14.62 69.6819 14.34 70.3319 14.33V15.02C69.6219 15.03 68.7119 15.4 68.7119 16.52V19H67.9919V14.4H68.7119V15.25ZM73.1411 19.09C71.7611 19.09 70.8011 18.07 70.8011 16.7C70.8011 15.32 71.7611 14.32 73.1411 14.32C74.5211 14.32 75.4811 15.32 75.4811 16.7C75.4811 18.07 74.5211 19.09 73.1411 19.09ZM73.1411 18.39C74.1111 18.39 74.7511 17.67 74.7511 16.7C74.7511 15.73 74.1111 15.02 73.1411 15.02C72.1711 15.02 71.5211 15.73 71.5211 16.7C71.5211 17.67 72.1711 18.39 73.1411 18.39ZM77.0354 13.42C76.8154 13.42 76.5954 13.24 76.5954 12.97C76.5954 12.7 76.8154 12.54 77.0354 12.54C77.2554 12.54 77.4754 12.7 77.4754 12.97C77.4754 13.24 77.2554 13.42 77.0354 13.42ZM77.3954 19H76.6754V14.4H77.4054L77.3954 19ZM82.5441 12.5H83.2741V19H82.5441V18.17C82.1941 18.72 81.6141 19.08 80.8341 19.08C79.5241 19.08 78.5941 18.07 78.5941 16.7C78.5941 15.32 79.5241 14.33 80.8341 14.33C81.6141 14.33 82.1941 14.68 82.5441 15.23V12.5ZM80.9241 18.39C81.9141 18.39 82.5441 17.68 82.5441 16.7C82.5441 15.72 81.9141 15.02 80.9241 15.02C79.9441 15.02 79.2941 15.72 79.2941 16.7C79.2941 17.68 79.9441 18.39 80.9241 18.39ZM90.3371 14.4H91.0671V19H90.3371V18.17C89.9871 18.72 89.4071 19.08 88.6271 19.08C87.3171 19.08 86.3871 18.07 86.3871 16.7C86.3871 15.32 87.3171 14.33 88.6271 14.33C89.4071 14.33 89.9871 14.68 90.3371 15.23V14.4ZM88.7171 18.39C89.7071 18.39 90.3371 17.68 90.3371 16.7C90.3371 15.72 89.7071 15.02 88.7171 15.02C87.7371 15.02 87.0871 15.72 87.0871 16.7C87.0871 17.68 87.7371 18.39 88.7171 18.39ZM94.7481 14.33C96.0581 14.33 96.9981 15.34 96.9981 16.71C96.9981 18.09 96.0581 19.08 94.7481 19.08C93.9681 19.08 93.3881 18.73 93.0381 18.17V20.84H92.3181V14.4H93.0381V15.24C93.3881 14.68 93.9681 14.33 94.7481 14.33ZM94.6581 18.39C95.6381 18.39 96.2881 17.69 96.2881 16.71C96.2881 15.73 95.6381 15.02 94.6581 15.02C93.6781 15.02 93.0381 15.73 93.0381 16.71C93.0381 17.69 93.6781 18.39 94.6581 18.39ZM100.539 14.33C101.849 14.33 102.789 15.34 102.789 16.71C102.789 18.09 101.849 19.08 100.539 19.08C99.7591 19.08 99.1791 18.73 98.8291 18.17V20.84H98.1091V14.4H98.8291V15.24C99.1791 14.68 99.7591 14.33 100.539 14.33ZM100.449 18.39C101.429 18.39 102.079 17.69 102.079 16.71C102.079 15.73 101.429 15.02 100.449 15.02C99.4691 15.02 98.8291 15.73 98.8291 16.71C98.8291 17.69 99.4691 18.39 100.449 18.39ZM108.102 19.09C106.722 19.09 105.762 18.07 105.762 16.7C105.762 15.32 106.722 14.32 108.102 14.32C109.482 14.32 110.442 15.32 110.442 16.7C110.442 18.07 109.482 19.09 108.102 19.09ZM108.102 18.39C109.072 18.39 109.712 17.67 109.712 16.7C109.712 15.73 109.072 15.02 108.102 15.02C107.132 15.02 106.482 15.73 106.482 16.7C106.482 17.67 107.132 18.39 108.102 18.39ZM113.756 14.33C114.676 14.33 115.586 14.87 115.586 16.17V19H114.866V16.27C114.866 15.39 114.246 14.96 113.566 14.96C112.876 14.96 112.276 15.39 112.276 16.27V19H111.556V14.4H112.276V15.02C112.626 14.54 113.186 14.33 113.756 14.33Z" fill="white"/>
<path d="M60.1248 34.1807C60.0168 37.5107 57.8928 39.9047 54.5088 39.9047C51.0348 39.9047 48.6588 37.3847 48.6588 33.9107C48.6588 30.4367 51.0348 27.9167 54.5088 27.9167C56.5788 27.9167 58.2348 28.8167 59.2428 30.2567L58.1268 31.0487C57.2988 29.8967 56.0028 29.2847 54.5088 29.2847C51.8268 29.2847 50.0088 31.2287 50.0088 33.9107C50.0088 36.5927 51.8268 38.5367 54.5088 38.5367C56.7228 38.5367 58.3608 37.1147 58.5948 34.8647H54.4548V33.6047H60.1248V34.1807ZM66.1757 39.9227C63.6917 39.9227 61.9637 38.0867 61.9637 35.6207C61.9637 33.1367 63.6917 31.3367 66.1757 31.3367C68.6597 31.3367 70.3877 33.1367 70.3877 35.6207C70.3877 38.0867 68.6597 39.9227 66.1757 39.9227ZM66.1757 38.6627C67.9217 38.6627 69.0737 37.3667 69.0737 35.6207C69.0737 33.8747 67.9217 32.5967 66.1757 32.5967C64.4297 32.5967 63.2597 33.8747 63.2597 35.6207C63.2597 37.3667 64.4297 38.6627 66.1757 38.6627ZM76.3535 39.9227C73.8695 39.9227 72.1415 38.0867 72.1415 35.6207C72.1415 33.1367 73.8695 31.3367 76.3535 31.3367C78.8375 31.3367 80.5655 33.1367 80.5655 35.6207C80.5655 38.0867 78.8375 39.9227 76.3535 39.9227ZM76.3535 38.6627C78.0995 38.6627 79.2515 37.3667 79.2515 35.6207C79.2515 33.8747 78.0995 32.5967 76.3535 32.5967C74.6075 32.5967 73.4375 33.8747 73.4375 35.6207C73.4375 37.3667 74.6075 38.6627 76.3535 38.6627ZM89.4292 31.4807H90.7432V39.1487C90.7432 41.5247 89.0512 43.1807 86.3872 43.1807C84.9472 43.1807 83.7232 42.6227 82.9672 41.7227L83.8492 40.9847C84.5152 41.7227 85.4332 42.0467 86.3872 42.0467C87.9172 42.0467 89.4292 41.1287 89.4292 39.1487V38.2667C88.7992 39.2567 87.7552 39.9047 86.3512 39.9047C83.9932 39.9047 82.3192 38.0867 82.3192 35.6207C82.3192 33.1547 83.9932 31.3547 86.3512 31.3547C87.7552 31.3547 88.7992 31.9847 89.4292 32.9747V31.4807ZM86.5132 38.6627C88.2772 38.6627 89.4292 37.3847 89.4292 35.6207C89.4292 33.8567 88.2772 32.5967 86.5132 32.5967C84.7492 32.5967 83.5792 33.8567 83.5792 35.6207C83.5792 37.3847 84.7492 38.6627 86.5132 38.6627ZM94.291 39.7607H92.995V28.0607H94.291V39.7607ZM100.397 31.3367C102.773 31.3367 104.357 33.1547 104.357 35.6207V36.0347H97.5714C97.7334 37.6907 98.8674 38.7887 100.505 38.7887C101.729 38.7887 102.575 38.2307 103.043 37.5287L103.961 38.1947C103.241 39.2567 102.017 39.9227 100.505 39.9227C97.9854 39.9227 96.3114 38.0867 96.3114 35.6207C96.3114 33.1547 97.9134 31.3367 100.397 31.3367ZM100.397 32.4167C98.7774 32.4167 97.7514 33.5147 97.5714 35.1347H103.151C102.971 33.5687 101.945 32.4167 100.397 32.4167ZM115.249 28.0607C117.013 28.0607 118.597 29.4647 118.597 31.6247C118.597 33.7847 117.013 35.1887 115.249 35.1887H111.325V39.7607H109.975V28.0607H115.249ZM115.051 33.8747C116.311 33.8747 117.229 32.8847 117.229 31.6247C117.229 30.3827 116.329 29.3927 115.051 29.3927H111.325V33.8747H115.051ZM121.783 39.7607H120.487V28.0607H121.783V39.7607ZM130.914 31.4807H132.228V39.7607H130.914V38.2667C130.284 39.2567 129.24 39.9047 127.836 39.9047C125.478 39.9047 123.804 38.0867 123.804 35.6207C123.804 33.1367 125.478 31.3547 127.836 31.3547C129.24 31.3547 130.284 31.9847 130.914 32.9747V31.4807ZM127.998 38.6627C129.78 38.6627 130.914 37.3847 130.914 35.6207C130.914 33.8567 129.78 32.5967 127.998 32.5967C126.234 32.5967 125.064 33.8567 125.064 35.6207C125.064 37.3847 126.234 38.6627 127.998 38.6627ZM140.185 31.4807H141.535L136.927 43.0727H135.649L136.945 39.7427L133.705 31.4807H135.055L137.611 37.9607L140.185 31.4807Z" fill="white"/>
<path d="M8.67065 42.1188V9.14246L38.3224 25.1589L8.67065 42.1188Z" fill="#5CA9B3"/>
<path d="M8.67065 9.14246L29.6515 30.1233L38.3224 25.1589L8.67065 9.14246Z" fill="#C8DB9B"/>
<path d="M29.4718 20.3738L8.67065 42.1184L38.3224 25.1585L29.4718 20.3738Z" fill="#AC5067"/>
<path d="M29.6517 30.1229L38.3225 25.1585L29.4719 20.3738L24.7996 25.2708L29.6517 30.1229Z" fill="#F4A676"/>
</svg>
