<svg width="18" height="18" viewBox="0 0 18 18" fill="none" xmlns="http://www.w3.org/2000/svg">
<path d="M4.99443 14.7722C4.99443 15.754 4.19849 16.55 3.21665 16.55C2.23481 16.55 1.43888 15.754 1.43888 14.7722C1.43888 13.7904 2.23481 12.9944 3.21665 12.9944C4.19849 12.9944 4.99443 13.7904 4.99443 14.7722ZM4.99443 14.7722H12.1055C13.0874 14.7722 13.8833 13.9763 13.8833 12.9944V9.43888M12.1055 2.32777C12.1055 3.30961 12.9015 4.10554 13.8833 4.10554C14.8652 4.10554 15.6611 3.30961 15.6611 2.32777C15.6611 1.34593 14.8652 0.549988 13.8833 0.549988C12.9015 0.549988 12.1055 1.34593 12.1055 2.32777ZM12.1055 2.32777H4.99443C4.01259 2.32777 3.21665 3.1237 3.21665 4.10554V7.6611M16.55 11.2167L14.1976 8.68982C14.024 8.50338 13.7426 8.50338 13.5691 8.68982L11.2167 11.2167M5.88332 5.88332L3.53092 8.41016C3.35736 8.5966 3.07595 8.5966 2.90238 8.41016L0.549988 5.88332" stroke="#3C4242" stroke-width="1.1" stroke-linecap="round"/>
</svg>
