<svg width="18" height="18" viewBox="0 0 18 18" fill="none" xmlns="http://www.w3.org/2000/svg">
<path d="M12.185 16.55H4.9151C3.91134 16.55 3.09763 15.7507 3.09763 14.7647V8.12961C3.09763 7.61339 2.46226 7.35487 2.09066 7.71989C1.7514 8.05315 1.17059 7.87031 1.09172 7.40543L0.574853 4.35912C0.452106 3.63566 0.792274 2.91206 1.43252 2.53472L4.74657 0.581467C4.84309 0.524578 4.96756 0.546552 5.03788 0.632894C6.83845 2.84378 10.2616 2.84378 12.0622 0.632894C12.1325 0.546552 12.257 0.524579 12.3535 0.581467L15.6676 2.53472C16.3078 2.91206 16.648 3.63566 16.5252 4.35911L16.0084 7.40543C15.9295 7.87031 15.3487 8.05315 15.0094 7.71989C14.6378 7.35487 14.0025 7.61339 14.0025 8.12961V14.7647C14.0025 15.7507 13.1888 16.55 12.185 16.55Z" stroke="#3C4242" stroke-width="1.1"/>
</svg>
